<svg width="33" height="32" viewBox="0 0 33 32" fill="none" xmlns="http://www.w3.org/2000/svg">
<path fill-rule="evenodd" clip-rule="evenodd" d="M11 4C8.23858 4 6 6.23858 6 9V24C6 26.7614 8.23858 29 11 29H23C25.7614 29 28 26.7614 28 24V9C28 6.23858 25.7614 4 23 4H11ZM11 12C11 11.4477 11.4477 11 12 11H22C22.5523 11 23 11.4477 23 12C23 12.5523 22.5523 13 22 13H12C11.4477 13 11 12.5523 11 12ZM11 16C11 15.4477 11.4477 15 12 15H22C22.5523 15 23 15.4477 23 16C23 16.5523 22.5523 17 22 17H12C11.4477 17 11 16.5523 11 16ZM12 19C11.4477 19 11 19.4477 11 20C11 20.5523 11.4477 21 12 21H18C18.5523 21 19 20.5523 19 20C19 19.4477 18.5523 19 18 19H12Z" fill="#DCDEE3"/>
</svg>
